<svg id="eDfmtvCSwWO1" xmlns="http://www.w3.org/2000/svg" xmlns:xlink="http://www.w3.org/1999/xlink" viewBox="0 0 90 124" shape-rendering="geometricPrecision" text-rendering="geometricPrecision"><path d="M3.29498,3c0,16.8444-2.663533,33.0657,8.01682,47.2171C18.8821,60.2477,25.2344,64.357,37.9503,64.357c7.6565,0,14.203,2.2522,14.203-6.8174c0-9.004-6.0298-7.5158-14.8973-8.585-7.0616-.8514-10.1492-1.4237-15.213,2.8406-4.0272,3.3913-5.9374,9.3637-3.7875,14.4555c8.969,21.2425,27.4214,43.5563,52.0777,43.5563" fill="none" stroke="#f9df93" stroke-width="5" stroke-linecap="round" stroke-dashoffset="223.232368" stroke-dasharray="6,6"/><path d="M65.7881,93.8994c9.3226.9323,15.8978,13.4776,20.1998,20.7046c3.7925,6.372-2.4077,5.034-7.4487,5.492-4.2866.39-8.3202,1.073-12.7511,1.073" fill="none" stroke="#f9df93" stroke-width="5" stroke-linecap="round" stroke-dashoffset="55.822123" stroke-dasharray="6,6"/></svg>
