<svg width="90" height="124" viewBox="0 0 90 124" fill="none" xmlns="http://www.w3.org/2000/svg">
<path d="M3.29498 3C3.29498 19.8444 0.631447 36.0657 11.3118 50.2171C18.8821 60.2477 25.2344 64.357 37.9503 64.357C45.6068 64.357 52.1533 66.6092 52.1533 57.5396C52.1533 48.5356 46.1235 50.0238 37.256 48.9546C30.1944 48.1032 27.1068 47.5309 22.043 51.7952C18.0158 55.1865 16.1056 61.1589 18.2555 66.2507C27.2245 87.4932 45.6769 109.807 70.3332 109.807" stroke="#F9DF93" stroke-width="5" stroke-linecap="round" stroke-dasharray="6 6"/>
<path d="M65.7881 93.8994C75.1107 94.8317 81.6859 107.377 85.9879 114.604C89.7804 120.976 83.5802 119.638 78.5392 120.096C74.2526 120.486 70.219 121.169 65.7881 121.169" stroke="#F9DF93" stroke-width="5" stroke-linecap="round" stroke-dasharray="6 6"/>
</svg>
