<!DOCTYPE svg PUBLIC "-//W3C//DTD SVG 1.1//EN" "http://www.w3.org/Graphics/SVG/1.1/DTD/svg11.dtd">
<!-- Uploaded to: SVG Repo, www.svgrepo.com, Transformed by: SVG Repo Mixer Tools -->
<svg fill="#1d2657" height="800px" width="800px" version="1.1" id="Capa_1" xmlns="http://www.w3.org/2000/svg" xmlns:xlink="http://www.w3.org/1999/xlink" viewBox="0 0 491.1 491.1" xml:space="preserve" stroke="#1d2657">
<g id="SVGRepo_bgCarrier" stroke-width="0"/>
<g id="SVGRepo_tracerCarrier" stroke-linecap="round" stroke-linejoin="round"/>
<g id="SVGRepo_iconCarrier"> <g> <path d="M162.455,122.506c2.539,5.764,8.232,9.484,14.511,9.484c0.031,0,0.093,0,0.125,0l33.696-0.27 c0,0-31.93,83.139-34.065,89.754c-2.633,8.145-3.437,14.047-0.419,20.63l19.233,42.049l-48.161,31.6 c-10.97,7.201-14.033,21.929-6.838,32.906c4.563,6.953,12.142,10.729,19.893,10.729c4.473,0,8.989-1.262,13.012-3.891 l65.227-42.793c9.824-6.444,13.458-19.083,8.585-29.759l-15.318-33.486l44.682-9.222l16.29,51.689 c3.929,12.517,17.299,19.477,29.798,15.524c12.515-3.943,19.461-17.287,15.532-29.804l-22.743-72.156 c-3.681-11.641-15.563-18.604-27.476-16.136l-33.755,6.97l18.549-49.506l71.055-10.861c3.778-0.58,7.196-2.483,9.657-5.376 l40.593-47.526c5.692-6.653,4.904-16.653-1.748-22.333c-6.667-5.692-16.662-4.896-22.323,1.757l-36.776,43.047l-49.306,7.528 l-34.364-11.782c-3.406-1.168-6.986-1.741-10.586-1.696l-51.725,0.645l-23.422-53.436c-3.514-8.015-12.888-11.643-20.872-8.155 c-8.014,3.512-11.665,12.857-8.154,20.872L162.455,122.506z"/> <path d="M279.21,98.458c19.648,0,35.553-15.919,35.553-35.559c0-19.632-15.905-35.551-35.553-35.551 c-19.633,0-35.55,15.918-35.55,35.551C243.66,82.54,259.577,98.458,279.21,98.458z"/> <path d="M486.458,428.045c-6.187-6.187-16.212-6.187-22.401,0c-5.335,5.329-14.029,5.345-19.369,0 c-17.139-17.157-46.984-17.173-64.186,0.016c-5.106,5.135-14.173,5.15-19.357-0.031c-17.124-17.118-46.954-17.149-64.17,0.031 c-5.107,5.135-14.186,5.143-19.353-0.039c-17.143-17.126-47-17.126-64.144,0l-0.245,0.262c-5.215,4.951-14.018,4.857-19.139-0.247 c-17.14-17.142-46.984-17.173-64.186,0.031c-5.122,5.135-14.173,5.127-19.341-0.023c-17.14-17.142-47.032-17.142-64.171,0 c-5.324,5.329-14.018,5.345-19.353,0c-6.189-6.187-16.215-6.187-22.401,0c-6.189,6.188-6.189,16.213,0,22.401 c17.683,17.699,46.487,17.683,64.155,0c5.168-5.166,14.204-5.166,19.368,0c8.589,8.58,19.99,13.305,32.089,13.305 c12.096,0,23.484-4.718,32.085-13.313c5.164-5.166,14.185-5.166,19.354,0c17.128,17.142,46.984,17.157,64.155,0.031l0.249-0.254 c5.199-4.966,14.033-4.857,19.123,0.208c17.016,17.048,47.183,17.025,64.156,0.039c5.214-5.205,14.188-5.213,19.384-0.008 c17.019,17.018,47.171,16.994,64.143,0.008c5.227-5.197,14.2-5.205,19.384-0.008c17.7,17.683,46.492,17.66,64.172-0.008 C492.647,444.258,492.647,434.232,486.458,428.045z"/> </g> </g>
</svg>