<!DOCTYPE svg PUBLIC "-//W3C//DTD SVG 1.1//EN" "http://www.w3.org/Graphics/SVG/1.1/DTD/svg11.dtd">
<!-- Uploaded to: SVG Repo, www.svgrepo.com, Transformed by: SVG Repo Mixer Tools -->
<svg fill="#1d2657" height="800px" width="800px" version="1.1" id="Layer_1" xmlns="http://www.w3.org/2000/svg" xmlns:xlink="http://www.w3.org/1999/xlink" viewBox="0 0 512.039 512.039" xml:space="preserve" stroke="#1d2657">
<g id="SVGRepo_bgCarrier" stroke-width="0"/>
<g id="SVGRepo_tracerCarrier" stroke-linecap="round" stroke-linejoin="round"/>
<g id="SVGRepo_iconCarrier"> <g> <g> <g> <path d="M90.921,236.181c1.088,4.075-0.533,11.072-2.091,17.792c-2.56,11.008-5.44,23.467,0.683,34.069 c6.208,10.709,18.539,14.443,29.44,17.728c6.549,1.984,13.312,4.032,16.171,6.891c2.859,2.88,4.907,9.643,6.891,16.192 c3.285,10.88,7.019,23.232,17.771,29.44c8.981,5.205,22.123,3.435,34.027,0.683c7.061-1.621,14.165-3.072,17.792-2.091 c3.733,0.981,9.003,5.931,13.653,10.304c8.384,7.893,17.899,16.811,30.549,16.811s22.165-8.917,30.549-16.789 c4.651-4.373,9.92-9.344,13.632-10.304c3.691-0.981,10.731,0.448,17.813,2.091c11.904,2.752,25.024,4.523,34.048-0.683 c10.731-6.208,14.464-18.539,17.749-29.44c1.984-6.549,4.011-13.291,6.891-16.171s9.643-4.907,16.171-6.891 c10.88-3.285,23.232-7.019,29.419-17.749c6.144-10.603,3.243-23.061,0.704-34.069c-1.557-6.72-3.179-13.717-2.091-17.792 c1.003-3.733,5.952-9.003,10.325-13.653c7.872-8.384,16.789-17.877,16.789-30.549c0-12.651-8.917-22.144-16.789-30.528 c-4.373-4.672-9.323-9.941-10.325-13.675c-1.088-4.075,0.533-11.072,2.091-17.792c2.56-11.008,5.44-23.467-0.683-34.069 c-6.208-10.709-18.539-14.443-29.44-17.728c-6.549-1.984-13.312-4.032-16.171-6.891c-2.859-2.88-4.907-9.643-6.891-16.192 c-3.285-10.88-7.019-23.232-17.771-29.44c-8.981-5.205-22.144-3.435-34.027-0.683c-7.061,1.643-14.144,3.051-17.792,2.091 c-3.733-0.981-9.003-5.931-13.653-10.304C277.971,8.917,268.457,0,255.806,0c-12.651,0-22.165,8.917-30.549,16.789 c-4.651,4.373-9.92,9.344-13.632,10.304c-3.691,0.981-10.731-0.448-17.813-2.091c-11.904-2.752-25.045-4.523-34.048,0.683 c-10.731,6.208-14.464,18.539-17.749,29.44c-1.984,6.549-4.011,13.291-6.891,16.171s-9.643,4.907-16.171,6.891 c-10.88,3.285-23.232,7.019-29.419,17.749c-6.144,10.603-3.243,23.061-0.704,34.069c1.557,6.72,3.179,13.717,2.091,17.792 c-1.003,3.733-5.952,9.003-10.325,13.653c-7.872,8.384-16.789,17.877-16.789,30.549c0,12.651,8.917,22.144,16.789,30.528 C84.969,227.179,89.918,232.448,90.921,236.181z M237.587,152.448l21.333-21.333c3.072-3.072,7.616-3.947,11.627-2.304 c3.989,1.643,6.592,5.547,6.592,9.856v106.667c0,5.888-4.779,10.667-10.667,10.667s-10.667-4.779-10.667-10.667v-80.917 l-3.115,3.115c-4.16,4.16-10.923,4.16-15.083,0C233.449,163.371,233.427,156.629,237.587,152.448z"/> <path d="M445.971,494.763L393.79,368.021c-1.429-3.477-4.587-5.931-8.32-6.507c-3.819-0.448-7.467,0.939-9.835,3.84 c-3.925,4.843-8.213,8.555-13.099,11.392c-14.528,8.384-33.344,6.72-50.965,2.688c-3.52-0.939-8,0.832-10.624,3.307 c-8.427,7.915-22.507,21.141-42.304,22.336c-0.619,0.043-1.152,0.384-1.749,0.512c-0.384-0.021-0.704-0.256-1.088-0.256 c-21.099,0-35.563-13.589-45.845-23.232c-2.624-2.517-7.851-3.179-11.371-2.325c-14.677,3.392-35.051,5.312-49.451-2.987 c-4.928-2.859-9.237-6.613-13.163-11.435c-2.368-2.901-6.165-4.309-9.813-3.84c-3.733,0.555-6.891,3.029-8.32,6.507 L64.617,497.28c-1.685,4.117-0.661,8.853,2.603,11.883c2.027,1.877,4.629,2.859,7.253,2.859c1.621,0,3.264-0.384,4.779-1.131 l79.787-39.893l58.859,39.232c2.709,1.813,6.123,2.261,9.195,1.28c3.115-1.003,5.568-3.349,6.72-6.4l23.296-62.144l20.587,61.781 c1.045,3.136,3.52,5.632,6.656,6.699c3.136,1.109,6.635,0.64,9.365-1.216l58.859-39.232l79.787,39.893 c1.515,0.747,3.136,1.131,4.779,1.131h0.213c4.971-0.085,10.88-4.715,10.88-10.667 C448.233,498.859,447.379,496.576,445.971,494.763z"/> </g> </g> </g> </g>
</svg>