<!DOCTYPE svg PUBLIC "-//W3C//DTD SVG 1.1//EN" "http://www.w3.org/Graphics/SVG/1.1/DTD/svg11.dtd">
<!-- Uploaded to: SVG Repo, www.svgrepo.com, Transformed by: SVG Repo Mixer Tools -->
<svg fill="#1d2657" height="800px" width="800px" version="1.1" id="Capa_1" xmlns="http://www.w3.org/2000/svg" xmlns:xlink="http://www.w3.org/1999/xlink" viewBox="0 0 612 612" xml:space="preserve" stroke="#1d2657">
<g id="SVGRepo_bgCarrier" stroke-width="0"/>
<g id="SVGRepo_tracerCarrier" stroke-linecap="round" stroke-linejoin="round"/>
<g id="SVGRepo_iconCarrier"> <g> <path d="M538.203,211.353C536.547,94.556,433.003,0,305.893,0C177.75,0,73.5,96.081,73.5,214.18c0,0.108,0.028,0.204,0.031,0.312 c0.011,0.53,0.088,1.055,0.159,1.585c0.054,0.405,0.085,0.817,0.173,1.211c0.102,0.454,0.267,0.89,0.414,1.336 c0.147,0.445,0.275,0.893,0.465,1.319c0.164,0.369,0.386,0.717,0.584,1.077c0.258,0.465,0.508,0.93,0.817,1.361 c0.062,0.088,0.096,0.184,0.162,0.269l184.532,247.812l-22.338,13.043c-6.763,3.95-9.042,12.629-5.095,19.392 c2.637,4.517,7.381,7.032,12.258,7.032c2.427,0,4.888-0.627,7.134-1.937l14.705-8.586v40.312v58.102 c0,7.832,6.349,14.178,14.178,14.178s14.178-6.346,14.178-14.178v-43.925h20.328v43.925c0,7.832,6.349,14.178,14.178,14.178 s14.178-6.346,14.178-14.178V539.72v-38.464l11.543,6.74c2.249,1.31,4.707,1.937,7.134,1.937c4.877,0,9.624-2.518,12.258-7.032 c3.95-6.763,1.667-15.442-5.095-19.392l-20.135-11.756l185.491-249.1C538.249,219.279,538.983,215.17,538.203,211.353z M334.96,397.471c-5.623-10.208-16.483-17.141-28.936-17.141c-12.454,0-23.314,6.936-28.936,17.141l-42.048-169.113h141.968 L334.96,397.471z M115.911,228.358h89.911l45.068,181.266L115.911,228.358z M406.224,228.358h89.908L361.157,409.621 L406.224,228.358z"/> </g> </g>
</svg>