<svg width="92" height="96" viewBox="0 0 92 96" fill="none" xmlns="http://www.w3.org/2000/svg">
<rect x="2" width="5" height="29" rx="2.5" fill="#D9D9D9"/>
<rect x="63" width="5" height="29" rx="2.5" fill="#D9D9D9"/>
<rect x="33" y="34" width="5" height="29" rx="2.5" fill="#D9D9D9"/>
<rect x="1" y="66" width="5" height="29" rx="2.5" fill="#D9D9D9"/>
<rect x="64" y="67" width="5" height="29" rx="2.5" fill="#D9D9D9"/>
<rect x="73" width="5" height="29" rx="2.5" fill="#D9D9D9"/>
<rect x="43" y="34" width="5" height="29" rx="2.5" fill="#D9D9D9"/>
<rect x="11" y="66" width="5" height="29" rx="2.5" fill="#D9D9D9"/>
<rect x="74" y="67" width="5" height="29" rx="2.5" fill="#D9D9D9"/>
<rect x="83" width="5" height="29" rx="2.5" fill="#D9D9D9"/>
<rect x="53" y="34" width="5" height="29" rx="2.5" fill="#D9D9D9"/>
<rect x="21" y="66" width="5" height="29" rx="2.5" fill="#D9D9D9"/>
<rect x="84" y="67" width="5" height="29" rx="2.5" fill="#D9D9D9"/>
<rect x="12" width="5" height="29" rx="2.5" fill="#D9D9D9"/>
<rect x="21" width="5" height="29" rx="2.5" fill="#D9D9D9"/>
<rect x="29.0718" y="5.45862" width="5" height="29" rx="2.5" transform="rotate(-90 29.0718 5.45862)" fill="#D9D9D9"/>
<rect x="62.0718" y="39" width="5" height="29" rx="2.5" transform="rotate(-90 62.0718 39)" fill="#D9D9D9"/>
<rect x="0.0717773" y="39" width="5" height="29" rx="2.5" transform="rotate(-90 0.0717773 39)" fill="#D9D9D9"/>
<rect x="32.0718" y="71" width="5" height="29" rx="2.5" transform="rotate(-90 32.0718 71)" fill="#D9D9D9"/>
<rect x="29.0718" y="5.45862" width="5" height="29" rx="2.5" transform="rotate(-90 29.0718 5.45862)" fill="#D9D9D9"/>
<rect x="62.0718" y="39" width="5" height="29" rx="2.5" transform="rotate(-90 62.0718 39)" fill="#D9D9D9"/>
<rect x="0.0717773" y="39" width="5" height="29" rx="2.5" transform="rotate(-90 0.0717773 39)" fill="#D9D9D9"/>
<rect x="32.0718" y="71" width="5" height="29" rx="2.5" transform="rotate(-90 32.0718 71)" fill="#D9D9D9"/>
<rect x="29" y="29" width="5" height="29" rx="2.5" transform="rotate(-90 29 29)" fill="#D9D9D9"/>
<rect x="62" y="62.5414" width="5" height="29" rx="2.5" transform="rotate(-90 62 62.5414)" fill="#D9D9D9"/>
<rect y="62.5414" width="5" height="29" rx="2.5" transform="rotate(-90 0 62.5414)" fill="#D9D9D9"/>
<rect x="32" y="94.5414" width="5" height="29" rx="2.5" transform="rotate(-90 32 94.5414)" fill="#D9D9D9"/>
<rect x="29" y="29" width="5" height="29" rx="2.5" transform="rotate(-90 29 29)" fill="#D9D9D9"/>
<rect x="62" y="62.5414" width="5" height="29" rx="2.5" transform="rotate(-90 62 62.5414)" fill="#D9D9D9"/>
<rect y="62.5414" width="5" height="29" rx="2.5" transform="rotate(-90 0 62.5414)" fill="#D9D9D9"/>
<rect x="32" y="94.5414" width="5" height="29" rx="2.5" transform="rotate(-90 32 94.5414)" fill="#D9D9D9"/>
<circle cx="32" cy="15" r="3" fill="#D9D9D9"/>
<ellipse cx="32.0003" cy="15" rx="1.75862" ry="1.75862" fill="white"/>
<circle cx="65" cy="48.5414" r="3" fill="#D9D9D9"/>
<ellipse cx="65.0003" cy="48.5414" rx="1.75862" ry="1.75862" fill="white"/>
<circle cx="3" cy="48.5414" r="3" fill="#D9D9D9"/>
<ellipse cx="3.00032" cy="48.5414" rx="1.75862" ry="1.75862" fill="white"/>
<circle cx="35" cy="80.5414" r="3" fill="#D9D9D9"/>
<ellipse cx="35.0003" cy="80.5414" rx="1.75862" ry="1.75862" fill="white"/>
<circle cx="43" cy="15" r="6" fill="#D9D9D9"/>
<ellipse cx="43.0002" cy="15" rx="3.51724" ry="3.51724" fill="white"/>
<circle cx="76" cy="48.5414" r="6" fill="#D9D9D9"/>
<ellipse cx="76.0002" cy="48.5414" rx="3.51724" ry="3.51724" fill="white"/>
<circle cx="14" cy="48.5414" r="6" fill="#D9D9D9"/>
<ellipse cx="14.0002" cy="48.5414" rx="3.51724" ry="3.51724" fill="white"/>
<circle cx="46" cy="80.5414" r="6" fill="#D9D9D9"/>
<ellipse cx="46.0002" cy="80.5414" rx="3.51724" ry="3.51724" fill="white"/>
<circle cx="43" cy="15" r="6" fill="#D9D9D9"/>
<ellipse cx="43.0002" cy="15" rx="3.51724" ry="3.51724" fill="white"/>
<circle cx="76" cy="48.5414" r="6" fill="#D9D9D9"/>
<ellipse cx="76.0002" cy="48.5414" rx="3.51724" ry="3.51724" fill="white"/>
<circle cx="14" cy="48.5414" r="6" fill="#D9D9D9"/>
<ellipse cx="14.0002" cy="48.5414" rx="3.51724" ry="3.51724" fill="white"/>
<circle cx="46" cy="80.5414" r="6" fill="#D9D9D9"/>
<ellipse cx="46.0002" cy="80.5414" rx="3.51724" ry="3.51724" fill="white"/>
<circle cx="54" cy="15" r="3" fill="#D9D9D9"/>
<ellipse cx="54.0003" cy="15" rx="1.75862" ry="1.75862" fill="white"/>
<circle cx="87" cy="48.5414" r="3" fill="#D9D9D9"/>
<ellipse cx="87.0003" cy="48.5414" rx="1.75862" ry="1.75862" fill="white"/>
<circle cx="25" cy="48.5414" r="3" fill="#D9D9D9"/>
<ellipse cx="25.0003" cy="48.5414" rx="1.75862" ry="1.75862" fill="white"/>
<circle cx="57" cy="80.5414" r="3" fill="#D9D9D9"/>
<ellipse cx="57.0003" cy="80.5414" rx="1.75862" ry="1.75862" fill="white"/>
<circle cx="54" cy="15" r="3" fill="#D9D9D9"/>
<ellipse cx="54.0003" cy="15" rx="1.75862" ry="1.75862" fill="white"/>
<circle cx="87" cy="48.5414" r="3" fill="#D9D9D9"/>
<ellipse cx="87.0003" cy="48.5414" rx="1.75862" ry="1.75862" fill="white"/>
<circle cx="25" cy="48.5414" r="3" fill="#D9D9D9"/>
<ellipse cx="25.0003" cy="48.5414" rx="1.75862" ry="1.75862" fill="white"/>
<circle cx="57" cy="80.5414" r="3" fill="#D9D9D9"/>
<ellipse cx="57.0003" cy="80.5414" rx="1.75862" ry="1.75862" fill="white"/>
</svg>
