<!DOCTYPE svg PUBLIC "-//W3C//DTD SVG 1.1//EN" "http://www.w3.org/Graphics/SVG/1.1/DTD/svg11.dtd">
<!-- Uploaded to: SVG Repo, www.svgrepo.com, Transformed by: SVG Repo Mixer Tools -->
<svg fill="#1d2657" height="800px" width="800px" version="1.2" baseProfile="tiny" id="Layer_1" xmlns="http://www.w3.org/2000/svg" xmlns:xlink="http://www.w3.org/1999/xlink" viewBox="0 0 256 256" xml:space="preserve" stroke="#1d2657">
<g id="SVGRepo_bgCarrier" stroke-width="0"/>
<g id="SVGRepo_tracerCarrier" stroke-linecap="round" stroke-linejoin="round"/>
<g id="SVGRepo_iconCarrier"> <g id="XMLID_8_"> <path id="XMLID_12_" d="M253.4,141.2c-6.4-19.6-31.4-20.8-54.5-10.8c-4,1.7-9.2,3.2-15.2,4.3l-4.7-18.2c3.8-1.9,6.2-5.9,6-10.4 c-0.3-6.1-5.4-10.9-11.5-10.6l-3.4-13.4c3.4-2.6,5.2-6.9,4.2-11.3c-1.4-6-7.3-9.8-13.3-8.4c0,0-48.7,0.4-64,4.5 c-15.2,4.1-20.4,29.7-20.4,29.7L63.3,140H0v20h168.3C187.9,160,239.3,154.8,253.4,141.2z M124.5,85.9l37.8-1.6l3,11.6 c-10.2,0.5-28.4,1.4-44.6,2.4L124.5,85.9z M114,120.5l57-2.6l4.7,18.2c-23.3,3.4-53.4,3.8-67.7,3.9L114,120.5z"/> <path id="XMLID_14_" d="M220.4,206c-5.7,0-11.2,1.3-16,3.6c-0.4,0.2-0.8,0.3-1.1,0.4l-4.8-18.6c0.9-0.3,1.7-0.6,2.6-1 c6.1-2.8,12.9-4.3,19.5-4.3c0,0,34.5-0.4,34.5-34.2c0-1.3-0.1-2.8-0.3-4.1c-21.5,15.6-79.1,18.2-86.4,18.2H0v27 c4,0,8.2-0.9,11.9-2.6c6.1-2.8,12.8-4.3,19.5-4.3c6.6,0,13.3,1.5,19.3,4.3c4,1.8,8,2.6,12.2,2.6c4.2,0,8.3-0.9,12-2.6 c6.1-2.8,12.9-4.3,19.5-4.3c6.7,0,13.3,1.4,19.4,4.3c3.8,1.8,8,2.6,12.2,2.6c4.1,0,8.2-0.9,12-2.6c6.1-2.8,12.9-4.3,19.4-4.3 c6.8,0,13.3,1.4,19.4,4.3c3.9,1.8,8.1,2.6,12.2,2.6c0.5,0,1-0.1,1.5-0.1l5,19.3c-2.2,0.4-4.3,0.6-6.6,0.6c-5.5,0-10.8-1.2-15.5-3.3 c-4.8-2.3-10.3-3.6-16-3.6s-11.2,1.3-16,3.6c-4.7,2.1-10,3.3-15.5,3.3c-5.5,0-10.8-1.2-15.5-3.3c-4.8-2.3-10.3-3.6-16-3.6 c-5.7,0-11.2,1.3-16,3.6c-4.7,2.1-10,3.3-15.5,3.3c-5.5,0-10.8-1.2-15.5-3.3c-4.8-2.3-10.3-3.6-16-3.6c-5.6,0-11,1.3-15.9,3.6 c-4.8,2.1-10.5,3.3-15.5,3.3v23.3c5,0,10.7-1.2,15.5-3.3c4.8-2.3,10.2-3.6,15.9-3.6c5.7,0,11.1,1.3,16,3.6c4.7,2.1,10,3.3,15.5,3.3 c5.5,0,10.8-1.2,15.5-3.3c4.8-2.3,10.3-3.6,16-3.6c5.7,0,11.2,1.3,16,3.6c4.7,2.1,10,3.3,15.5,3.3c5.5,0,10.8-1.2,15.5-3.3 c4.8-2.3,10.3-3.6,16-3.6s11.2,1.3,16,3.6c4.7,2.1,10,3.3,15.5,3.3c5.5,0,10.8-1.2,15.5-3.3c4.8-2.3,10.3-3.6,16-3.6 c5.7,0,11.2,1.3,16,3.6c4.7,2.1,9.6,3.3,15.6,3.3v-23.3c-6,0-10.9-1.2-15.6-3.3C231.6,207.3,226.1,206,220.4,206z"/> <circle id="XMLID_15_" cx="106.8" cy="39.6" r="21.6"/> </g> </g>
</svg>